<svg width="600" height="600" xmlns="http://www.w3.org/2000/svg">
  <defs>
    <radialGradient id="gradient">
      <stop offset="10%" stop-color="#ffffff" />
      <stop offset="90%" stop-color="#ffffff" />
      <stop offset="99%" stop-color="#ffffff66" />
      <stop offset="100%" stop-color="transparent" />
    </radialGradient>
  </defs>
  <g id="Layer_1">
    <title>Layer 1</title>
    <rect x="5" y="5" width="590" height="590" fill="url(#gradient)" rx="150" />
    <circle stroke-width="40" id="svg_1" fill="none" r="250" cy="300" cx="300" stroke="#005770" />

    <g fill="none" stroke-width="9" fill-rule="evenodd" stroke-linecap="round" id="n" stroke="#ffffff"
      transform="scale(1.1) translate(0,-30)">
      <path id="0"
        d="m193.11768,233.17975l44.29389,-49.62247q9.65807,-7.99288 21.98042,-7.99288a46.44863,46.44863 0 0 1 3.87322,0.14654q6.31105,0.53287 7.90629,2.97401a3.34702,3.34702 0 0 1 0.54286,1.875q0,1.9316 -2.80418,5.73489a40.26081,40.26081 0 0 1 -0.19316,0.25977q-2.6643,5.99466 -24.97775,45.293q-47.72083,83.44235 -56.36647,121.33527a66.69727,66.69727 0 0 0 -1.91496,14.54372q0,2.6643 1.33215,2.6643a2.19137,2.19137 0 0 0 1.08236,-0.36634q1.52531,-0.90586 3.94982,-4.06305a62.97392,62.97392 0 0 0 1.62854,-2.23136q10.45403,-18.10386 25.39737,-40.30743a1102.20832,1102.20832 0 0 1 9.57148,-13.97755q20.97465,-30.15314 39.69465,-53.20927a644.53927,644.53927 0 0 1 0.60279,-0.74267q18.98309,-23.31257 42.96174,-43.62781a181.75811,181.75811 0 0 1 14.5637,-11.20003q7.76308,-5.32858 15.01663,-8.85212a74.01408,74.01408 0 0 1 14.04748,-5.25865a1100.21342,1100.21342 0 0 1 13.17827,-2.07815q21.57079,-3.25044 29.11739,-3.25044q0.99912,0.33303 0.99912,1.49866q0,1.16562 -3.66341,3.16385a215.99096,215.99096 0 0 0 -23.94535,15.78926q-30.24972,22.64316 -69.47146,63.97301a1203.235,1203.235 0 0 0 -95.08199,112.99603a1108.70252,1108.70252 0 0 0 -5.66163,7.72977q-10.74043,18.19713 -17.20468,24.10187a19.5659,19.5659 0 0 1 -1.44537,1.20892a24.91781,24.91781 0 0 1 -12.51219,4.81238a32.18801,32.18801 0 0 1 -3.47358,0.18317q-17.3179,0 -17.3179,-36.63405a87.74518,87.74518 0 0 1 3.56016,-24.35498a105.44276,105.44276 0 0 1 2.76753,-8.28262a757.23557,757.23557 0 0 1 11.46979,-28.93422q12.78862,-30.29968 24.61807,-49.25613a153.41003,153.41003 0 0 1 7.53995,-11.06347a722.75961,722.75961 0 0 0 2.65431,-3.92983q8.48578,-12.65872 8.66561,-14.32058a0.62278,0.62278 0 0 0 0.00333,-0.06661a0.25312,0.25312 0 0 0 -0.01998,-0.11324q-0.25312,-0.50621 -3.6534,3.71003a122.31439,122.31439 0 0 0 -0.32304,0.39964a4148.90809,4148.90809 0 0 1 -36.2011,44.91001q-45.13647,55.14089 -70.91351,81.63729a327.99787,327.99787 0 0 1 -10.11432,9.99776a734.46251,734.46251 0 0 1 -30.30967,29.73351a918.45863,918.45863 0 0 1 -23.30923,20.88806q-24.92446,21.60075 -41.55964,31.91825a119.16719,119.16719 0 0 1 -6.39764,3.71668a22.05702,22.05702 0 0 1 -4.89563,3.10391a16.99487,16.99487 0 0 1 -7.09368,1.55861a19.30281,19.30281 0 0 1 -4.89232,-0.68938q-4.37277,-1.14898 -9.70469,-4.21957a65.79473,65.79473 0 0 1 -0.72269,-0.41962q-8.992,-5.32858 -8.992,-12.32236q0,-3.25376 3.15053,-5.98134a15.50286,15.50286 0 0 1 0.84592,-0.67939l54.61802,-45.95908a88.63106,88.63106 0 0 1 1.73844,-1.47202q3.47691,-2.85746 4.42273,-2.85746a1.67851,1.67851 0 0 1 0.46292,0.05662q0.7027,0.20315 0.7027,1.10901q0,0.98579 -0.71269,2.56438a16.87831,16.87831 0 0 1 -0.28642,0.59947a13.94425,13.94425 0 0 1 -0.99244,1.66184q-0.54951,0.79595 -1.25888,1.63854a28.8643,28.8643 0 0 1 -0.91253,1.02909q-2.16474,2.33127 -4.49599,4.32949l-5.66163,5.99466q-10.32415,10.32415 -10.32415,11.48977q0,1.16562 0.66607,1.16562q0.66607,0 3.33036,-1.99822q31.97152,-21.98042 92.25117,-82.75963q60.27964,-60.77921 104.57352,-110.40168l0.00003,0.00001l0.00001,-0.00004l0.00001,0.00007z"
        stroke="null" />
    </g>
    <g fill="#70004add" stroke-width="0" font-size="9pt" fill-rule="evenodd" stroke-linecap="round" id="n"
      stroke="#70004add" transform="scale(1.1) translate(0,-30)">
      <path id="0"
        d="m193.11768,233.17975l44.29389,-49.62247q9.65807,-7.99288 21.98042,-7.99288a46.44863,46.44863 0 0 1 3.87322,0.14654q6.31105,0.53287 7.90629,2.97401a3.34702,3.34702 0 0 1 0.54286,1.875q0,1.9316 -2.80418,5.73489a40.26081,40.26081 0 0 1 -0.19316,0.25977q-2.6643,5.99466 -24.97775,45.293q-47.72083,83.44235 -56.36647,121.33527a66.69727,66.69727 0 0 0 -1.91496,14.54372q0,2.6643 1.33215,2.6643a2.19137,2.19137 0 0 0 1.08236,-0.36634q1.52531,-0.90586 3.94982,-4.06305a62.97392,62.97392 0 0 0 1.62854,-2.23136q10.45403,-18.10386 25.39737,-40.30743a1102.20832,1102.20832 0 0 1 9.57148,-13.97755q20.97465,-30.15314 39.69465,-53.20927a644.53927,644.53927 0 0 1 0.60279,-0.74267q18.98309,-23.31257 42.96174,-43.62781a181.75811,181.75811 0 0 1 14.5637,-11.20003q7.76308,-5.32858 15.01663,-8.85212a74.01408,74.01408 0 0 1 14.04748,-5.25865a1100.21342,1100.21342 0 0 1 13.17827,-2.07815q21.57079,-3.25044 29.11739,-3.25044q0.99912,0.33303 0.99912,1.49866q0,1.16562 -3.66341,3.16385a215.99096,215.99096 0 0 0 -23.94535,15.78926q-30.24972,22.64316 -69.47146,63.97301a1203.235,1203.235 0 0 0 -95.08199,112.99603a1108.70252,1108.70252 0 0 0 -5.66163,7.72977q-10.74043,18.19713 -17.20468,24.10187a19.5659,19.5659 0 0 1 -1.44537,1.20892a24.91781,24.91781 0 0 1 -12.51219,4.81238a32.18801,32.18801 0 0 1 -3.47358,0.18317q-17.3179,0 -17.3179,-36.63405a87.74518,87.74518 0 0 1 3.56016,-24.35498a105.44276,105.44276 0 0 1 2.76753,-8.28262a757.23557,757.23557 0 0 1 11.46979,-28.93422q12.78862,-30.29968 24.61807,-49.25613a153.41003,153.41003 0 0 1 7.53995,-11.06347a722.75961,722.75961 0 0 0 2.65431,-3.92983q8.48578,-12.65872 8.66561,-14.32058a0.62278,0.62278 0 0 0 0.00333,-0.06661a0.25312,0.25312 0 0 0 -0.01998,-0.11324q-0.25312,-0.50621 -3.6534,3.71003a122.31439,122.31439 0 0 0 -0.32304,0.39964a4148.90809,4148.90809 0 0 1 -36.2011,44.91001q-45.13647,55.14089 -70.91351,81.63729a327.99787,327.99787 0 0 1 -10.11432,9.99776a734.46251,734.46251 0 0 1 -30.30967,29.73351a918.45863,918.45863 0 0 1 -23.30923,20.88806q-24.92446,21.60075 -41.55964,31.91825a119.16719,119.16719 0 0 1 -6.39764,3.71668a22.05702,22.05702 0 0 1 -4.89563,3.10391a16.99487,16.99487 0 0 1 -7.09368,1.55861a19.30281,19.30281 0 0 1 -4.89232,-0.68938q-4.37277,-1.14898 -9.70469,-4.21957a65.79473,65.79473 0 0 1 -0.72269,-0.41962q-8.992,-5.32858 -8.992,-12.32236q0,-3.25376 3.15053,-5.98134a15.50286,15.50286 0 0 1 0.84592,-0.67939l54.61802,-45.95908a88.63106,88.63106 0 0 1 1.73844,-1.47202q3.47691,-2.85746 4.42273,-2.85746a1.67851,1.67851 0 0 1 0.46292,0.05662q0.7027,0.20315 0.7027,1.10901q0,0.98579 -0.71269,2.56438a16.87831,16.87831 0 0 1 -0.28642,0.59947a13.94425,13.94425 0 0 1 -0.99244,1.66184q-0.54951,0.79595 -1.25888,1.63854a28.8643,28.8643 0 0 1 -0.91253,1.02909q-2.16474,2.33127 -4.49599,4.32949l-5.66163,5.99466q-10.32415,10.32415 -10.32415,11.48977q0,1.16562 0.66607,1.16562q0.66607,0 3.33036,-1.99822q31.97152,-21.98042 92.25117,-82.75963q60.27964,-60.77921 104.57352,-110.40168l0.00003,0.00001l0.00001,-0.00004l0.00001,0.00007z"
        stroke="null" />
    </g>
    <g fill="none" stroke-width="9" fill-rule="evenodd" stroke-linecap="round" id="c" stroke="#ffffff"
      transform="scale(1.1) translate(-6,-30)">
      <path id="1"
        d="m242.9489,368.7718l-0.32242,-6.12611q0.30952,-28.73466 19.41977,-59.09759a174.70372,174.70372 0 0 1 1.69919,-2.64712q20.79652,-31.75904 51.7495,-55.77983q30.95297,-24.02079 68.67691,-39.33607q37.72393,-15.31528 70.93389,-15.31528q19.02319,0 35.30573,7.89946a35.209,35.209 0 0 1 8.23155,5.40065a23.72094,23.72094 0 0 1 8.05099,18.45894q0,15.36686 -16.8855,33.1229a117.05059,117.05059 0 0 1 -1.33162,1.37677a164.29902,164.29902 0 0 1 -33.53884,26.06497a191.99547,191.99547 0 0 1 -9.98878,5.53285a151.82432,151.82432 0 0 1 -15.93433,7.16433q-15.61836,5.89396 -28.39935,5.89396q-8.70553,0 -18.0559,-4.8364a22.26679,22.26679 0 0 1 -4.52042,-3.02759a13.46776,13.46776 0 0 1 -4.82996,-10.51433a6.35826,6.35826 0 0 1 1.57666,-4.10127q1.69273,-2.06353 5.2072,-3.82399a30.6241,30.6241 0 0 1 0.95438,-0.45784q27.40627,-10.9625 41.27063,-21.28016q2.52137,-2.80188 3.9465,-3.16944a1.62827,1.62827 0 0 1 0.40625,-0.05482a1.19621,1.19621 0 0 1 1.14139,0.74803q0.26439,0.5449 0.30308,1.48961a8.26057,8.26057 0 0 1 0.00644,0.34177q0,4.1593 -9.31168,9.68892a72.53311,72.53311 0 0 1 -1.65082,0.95115q-7.73824,5.80368 -7.73824,6.44853a1.93778,1.93778 0 0 0 0.00967,0.21602q0.0258,0.21602 0.10317,0.32242a0.24505,0.24505 0 0 0 0.20957,0.1064a10.01458,10.01458 0 0 0 3.52734,-0.94792q9.34394,-3.90135 35.80871,-23.87893q30.35649,-22.9181 32.69407,-30.72404a4.20123,4.20123 0 0 0 0.19346,-1.19621a3.65632,3.65632 0 0 0 -2.30858,-3.45319q-1.76368,-0.86088 -4.86864,-1.02209a29.17318,29.17318 0 0 0 -1.52831,-0.03868a141.62918,141.62918 0 0 0 -44.74639,7.49641a175.99343,175.99343 0 0 0 -18.12683,7.174q-31.92025,14.67041 -56.5859,36.75664q-24.66565,22.08623 -44.6561,46.75188a338.27083,338.27083 0 0 0 -14.69943,19.45522q-6.9096,9.91141 -12.1168,19.17794a178.99201,178.99201 0 0 0 -3.81431,7.15143a172.17267,172.17267 0 0 0 -4.65584,9.9662q-4.36565,10.25641 -5.54573,17.66254a32.5232,32.5232 0 0 0 -0.4385,5.09756a10.73036,10.73036 0 0 0 0.32242,2.76319q1.15751,4.3302 6.44853,4.3302a23.68869,23.68869 0 0 0 3.0953,-0.24827q6.51625,-0.88023 20.11943,-4.91055a178.45678,178.45678 0 0 0 11.03022,-3.71757q15.67638,-5.79401 39.42957,-16.91774q33.04873,-15.47648 63.67929,-37.07908a26.68404,26.68404 0 0 1 0.7964,-0.65775q1.61214,-1.27681 2.26667,-1.27681a0.67064,0.67064 0 0 1 0.64163,0.38691q0.16444,0.31922 0.16444,0.9028a2.56652,2.56652 0 0 1 -0.19346,0.76737q-0.69645,1.89265 -3.89168,7.49641a312.9055,312.9055 0 0 1 -1.55732,2.6987a112.42377,112.42377 0 0 1 -4.09483,6.45499q-4.95893,7.30618 -12.49081,16.46955a353.06377,353.06377 0 0 1 -0.50298,0.61262a247.33035,247.33035 0 0 1 -20.62241,21.99596a280.6983,280.6983 0 0 1 -5.33294,4.92669a126.60087,126.60087 0 0 1 -21.03835,15.20887a158.17289,158.17289 0 0 1 -13.94497,7.19979a117.75348,117.75348 0 0 1 -16.102,6.05518q-8.87964,2.56975 -17.06606,3.13721a66.13941,66.13941 0 0 1 -4.5559,0.15799a79.25894,79.25894 0 0 1 -10.05649,-0.59972q-5.29425,-0.67709 -9.65668,-2.12479a34.37392,34.37392 0 0 1 -7.37067,-3.4016a42.96337,42.96337 0 0 1 -8.27991,-6.61619a34.49644,34.49644 0 0 1 -6.06808,-8.53787a111.53064,111.53064 0 0 1 -5.69405,-12.781q-2.43432,-6.62587 -3.50477,-12.69717a54.72872,54.72872 0 0 1 -0.7964,-7.08694l0,-0.00004l0.00004,0.00009l-0.00001,-0.00003z"
        stroke="null" />
    </g>
    <g fill="#70004add" stroke-width="0" fill-rule="evenodd" stroke-linecap="round" id="c" stroke="#70004add"
      transform="scale(1.1) translate(-6,-30)">
      <path id="1"
        d="m242.9489,368.7718l-0.32242,-6.12611q0.30952,-28.73466 19.41977,-59.09759a174.70372,174.70372 0 0 1 1.69919,-2.64712q20.79652,-31.75904 51.7495,-55.77983q30.95297,-24.02079 68.67691,-39.33607q37.72393,-15.31528 70.93389,-15.31528q19.02319,0 35.30573,7.89946a35.209,35.209 0 0 1 8.23155,5.40065a23.72094,23.72094 0 0 1 8.05099,18.45894q0,15.36686 -16.8855,33.1229a117.05059,117.05059 0 0 1 -1.33162,1.37677a164.29902,164.29902 0 0 1 -33.53884,26.06497a191.99547,191.99547 0 0 1 -9.98878,5.53285a151.82432,151.82432 0 0 1 -15.93433,7.16433q-15.61836,5.89396 -28.39935,5.89396q-8.70553,0 -18.0559,-4.8364a22.26679,22.26679 0 0 1 -4.52042,-3.02759a13.46776,13.46776 0 0 1 -4.82996,-10.51433a6.35826,6.35826 0 0 1 1.57666,-4.10127q1.69273,-2.06353 5.2072,-3.82399a30.6241,30.6241 0 0 1 0.95438,-0.45784q27.40627,-10.9625 41.27063,-21.28016q2.52137,-2.80188 3.9465,-3.16944a1.62827,1.62827 0 0 1 0.40625,-0.05482a1.19621,1.19621 0 0 1 1.14139,0.74803q0.26439,0.5449 0.30308,1.48961a8.26057,8.26057 0 0 1 0.00644,0.34177q0,4.1593 -9.31168,9.68892a72.53311,72.53311 0 0 1 -1.65082,0.95115q-7.73824,5.80368 -7.73824,6.44853a1.93778,1.93778 0 0 0 0.00967,0.21602q0.0258,0.21602 0.10317,0.32242a0.24505,0.24505 0 0 0 0.20957,0.1064a10.01458,10.01458 0 0 0 3.52734,-0.94792q9.34394,-3.90135 35.80871,-23.87893q30.35649,-22.9181 32.69407,-30.72404a4.20123,4.20123 0 0 0 0.19346,-1.19621a3.65632,3.65632 0 0 0 -2.30858,-3.45319q-1.76368,-0.86088 -4.86864,-1.02209a29.17318,29.17318 0 0 0 -1.52831,-0.03868a141.62918,141.62918 0 0 0 -44.74639,7.49641a175.99343,175.99343 0 0 0 -18.12683,7.174q-31.92025,14.67041 -56.5859,36.75664q-24.66565,22.08623 -44.6561,46.75188a338.27083,338.27083 0 0 0 -14.69943,19.45522q-6.9096,9.91141 -12.1168,19.17794a178.99201,178.99201 0 0 0 -3.81431,7.15143a172.17267,172.17267 0 0 0 -4.65584,9.9662q-4.36565,10.25641 -5.54573,17.66254a32.5232,32.5232 0 0 0 -0.4385,5.09756a10.73036,10.73036 0 0 0 0.32242,2.76319q1.15751,4.3302 6.44853,4.3302a23.68869,23.68869 0 0 0 3.0953,-0.24827q6.51625,-0.88023 20.11943,-4.91055a178.45678,178.45678 0 0 0 11.03022,-3.71757q15.67638,-5.79401 39.42957,-16.91774q33.04873,-15.47648 63.67929,-37.07908a26.68404,26.68404 0 0 1 0.7964,-0.65775q1.61214,-1.27681 2.26667,-1.27681a0.67064,0.67064 0 0 1 0.64163,0.38691q0.16444,0.31922 0.16444,0.9028a2.56652,2.56652 0 0 1 -0.19346,0.76737q-0.69645,1.89265 -3.89168,7.49641a312.9055,312.9055 0 0 1 -1.55732,2.6987a112.42377,112.42377 0 0 1 -4.09483,6.45499q-4.95893,7.30618 -12.49081,16.46955a353.06377,353.06377 0 0 1 -0.50298,0.61262a247.33035,247.33035 0 0 1 -20.62241,21.99596a280.6983,280.6983 0 0 1 -5.33294,4.92669a126.60087,126.60087 0 0 1 -21.03835,15.20887a158.17289,158.17289 0 0 1 -13.94497,7.19979a117.75348,117.75348 0 0 1 -16.102,6.05518q-8.87964,2.56975 -17.06606,3.13721a66.13941,66.13941 0 0 1 -4.5559,0.15799a79.25894,79.25894 0 0 1 -10.05649,-0.59972q-5.29425,-0.67709 -9.65668,-2.12479a34.37392,34.37392 0 0 1 -7.37067,-3.4016a42.96337,42.96337 0 0 1 -8.27991,-6.61619a34.49644,34.49644 0 0 1 -6.06808,-8.53787a111.53064,111.53064 0 0 1 -5.69405,-12.781q-2.43432,-6.62587 -3.50477,-12.69717a54.72872,54.72872 0 0 1 -0.7964,-7.08694l0,-0.00004l0.00004,0.00009l-0.00001,-0.00003z"
        stroke="null" />
    </g>
  </g>

</svg>