<svg width="600" height="600" xmlns="http://www.w3.org/2000/svg">
  <g id="Layer_1">
    <circle stroke-width="40" id="circle" fill="none" r="250" cy="300" cx="300" stroke="#005770"/>
    <g fill="none" stroke-width="15" fill-rule="evenodd" stroke-linecap="round" id="n-stroke" stroke="#e1e4e9" transform="matrix(1.1 0 0 1.1 0 -33)">
      <path id="n-stroke-path" d="m193.1 233.2 44.3-49.6q9.7-8 22-8a46.4 46.4 0 0 1 3.9.1q6.3.5 7.9 3a3.3 3.3 0 0 1 .5 1.9q0 1.9-2.8 5.7a40.3 40.3 0 0 1-.2.3q-2.6 6-25 45.2-47.7 83.5-56.3 121.4a66.7 66.7 0 0 0-2 14.5q0 2.7 1.4 2.7a2.2 2.2 0 0 0 1-.4q1.6-.9 4-4a63 63 0 0 0 1.7-2.3q10.4-18 25.3-40.3a1102.2 1102.2 0 0 1 9.6-14q21-30.1 39.7-53.2a644.5 644.5 0 0 1 .6-.7q19-23.3 43-43.6a181.8 181.8 0 0 1 14.5-11.2q7.8-5.4 15-8.9a74 74 0 0 1 14.1-5.2 1100.2 1100.2 0 0 1 13.2-2.1q21.6-3.3 29.1-3.3 1 .4 1 1.5 0 1.2-3.7 3.2a216 216 0 0 0-24 15.8q-30.2 22.6-69.4 64a1203.2 1203.2 0 0 0-95 113 1108.7 1108.7 0 0 0-5.7 7.7q-10.8 18.2-17.2 24a19.6 19.6 0 0 1-1.5 1.3 25 25 0 0 1-12.5 4.8 32.2 32.2 0 0 1-3.5.2q-17.3 0-17.3-36.7a87.7 87.7 0 0 1 3.6-24.3 105.4 105.4 0 0 1 2.8-8.3 757.2 757.2 0 0 1 11.4-29q12.8-30.2 24.6-49.2a153.4 153.4 0 0 1 7.6-11 722.8 722.8 0 0 0 2.6-4q8.5-12.6 8.7-14.3a.6.6 0 0 0 0 0 .3.3 0 0 0 0-.2q-.3-.5-3.7 3.7a122.3 122.3 0 0 0-.3.4 4149 4149 0 0 1-36.2 45q-45.1 55-71 81.6a328 328 0 0 1-10 10A734.5 734.5 0 0 1 58.6 410 918.5 918.5 0 0 1 35.3 431q-25 21.6-41.6 32a119.2 119.2 0 0 1-6.4 3.6 22 22 0 0 1-4.9 3.1 17 17 0 0 1-7 1.6 19.3 19.3 0 0 1-5-.7q-4.4-1.1-9.7-4.2a65.8 65.8 0 0 1-.7-.4q-9-5.4-9-12.3 0-3.3 3.2-6a15.5 15.5 0 0 1 .8-.7l54.6-46a88.6 88.6 0 0 1 1.8-1.4q3.4-2.9 4.4-2.9a1.7 1.7 0 0 1 .4 0q.7.3.7 1.2 0 1-.7 2.5a16.9 16.9 0 0 1-.3.6 14 14 0 0 1-1 1.7l-1.2 1.6a28.9 28.9 0 0 1-1 1q-2 2.4-4.4 4.4l-5.7 6Q-7.7 426-7.7 427.2q0 1.1.7 1.1.6 0 3.3-2 32-22 92.2-82.7 60.3-60.8 104.6-110.4h0z" stroke="null"/>
    </g>
    <g fill="#70004a" stroke-width="0" fill-rule="evenodd" stroke-linecap="round" id="n" stroke="#70004a" transform="matrix(1.1 0 0 1.1 0 -33)">
      <path id="n-fill-path" d="m193.1 233.2 44.3-49.6q9.7-8 22-8a46.4 46.4 0 0 1 3.9.1q6.3.5 7.9 3a3.3 3.3 0 0 1 .5 1.9q0 1.9-2.8 5.7a40.3 40.3 0 0 1-.2.3q-2.6 6-25 45.2-47.7 83.5-56.3 121.4a66.7 66.7 0 0 0-2 14.5q0 2.7 1.4 2.7a2.2 2.2 0 0 0 1-.4q1.6-.9 4-4a63 63 0 0 0 1.7-2.3q10.4-18 25.3-40.3a1102.2 1102.2 0 0 1 9.6-14q21-30.1 39.7-53.2a644.5 644.5 0 0 1 .6-.7q19-23.3 43-43.6a181.8 181.8 0 0 1 14.5-11.2q7.8-5.4 15-8.9a74 74 0 0 1 14.1-5.2 1100.2 1100.2 0 0 1 13.2-2.1q21.6-3.3 29.1-3.3 1 .4 1 1.5 0 1.2-3.7 3.2a216 216 0 0 0-24 15.8q-30.2 22.6-69.4 64a1203.2 1203.2 0 0 0-95 113 1108.7 1108.7 0 0 0-5.7 7.7q-10.8 18.2-17.2 24a19.6 19.6 0 0 1-1.5 1.3 25 25 0 0 1-12.5 4.8 32.2 32.2 0 0 1-3.5.2q-17.3 0-17.3-36.7a87.7 87.7 0 0 1 3.6-24.3 105.4 105.4 0 0 1 2.8-8.3 757.2 757.2 0 0 1 11.4-29q12.8-30.2 24.6-49.2a153.4 153.4 0 0 1 7.6-11 722.8 722.8 0 0 0 2.6-4q8.5-12.6 8.7-14.3a.6.6 0 0 0 0 0 .3.3 0 0 0 0-.2q-.3-.5-3.7 3.7a122.3 122.3 0 0 0-.3.4 4149 4149 0 0 1-36.2 45q-45.1 55-71 81.6a328 328 0 0 1-10 10A734.5 734.5 0 0 1 58.6 410 918.5 918.5 0 0 1 35.3 431q-25 21.6-41.6 32a119.2 119.2 0 0 1-6.4 3.6 22 22 0 0 1-4.9 3.1 17 17 0 0 1-7 1.6 19.3 19.3 0 0 1-5-.7q-4.4-1.1-9.7-4.2a65.8 65.8 0 0 1-.7-.4q-9-5.4-9-12.3 0-3.3 3.2-6a15.5 15.5 0 0 1 .8-.7l54.6-46a88.6 88.6 0 0 1 1.8-1.4q3.4-2.9 4.4-2.9a1.7 1.7 0 0 1 .4 0q.7.3.7 1.2 0 1-.7 2.5a16.9 16.9 0 0 1-.3.6 14 14 0 0 1-1 1.7l-1.2 1.6a28.9 28.9 0 0 1-1 1q-2 2.4-4.4 4.4l-5.7 6Q-7.7 426-7.7 427.2q0 1.1.7 1.1.6 0 3.3-2 32-22 92.2-82.7 60.3-60.8 104.6-110.4h0z" stroke="null"/>
    </g>
    <g fill="none" stroke-width="15" fill-rule="evenodd" stroke-linecap="round" id="c-stroke" stroke="#e1e4e9" transform="matrix(1.1 0 0 1.1 -6.6 -33)">
      <path id="c-stroke-path" d="m243 368.8-.4-6.2q.3-28.7 19.4-59a174.7 174.7 0 0 1 1.7-2.7q20.8-31.8 51.8-55.8 31-24 68.7-39.3 37.7-15.3 71-15.3 19 0 35.2 7.9a35.2 35.2 0 0 1 8.2 5.4 23.7 23.7 0 0 1 8 18.4q0 15.4-16.8 33.2a117 117 0 0 1-1.3 1.3 164.3 164.3 0 0 1-33.6 26 192 192 0 0 1-10 5.6 151.8 151.8 0 0 1-15.9 7.2q-15.6 5.9-28.4 5.9-8.7 0-18-4.9a22.3 22.3 0 0 1-4.6-3 13.5 13.5 0 0 1-4.8-10.5 6.4 6.4 0 0 1 1.6-4q1.7-2.2 5.2-4a30.6 30.6 0 0 1 1-.4q27.4-11 41.2-21.3 2.5-2.8 4-3.1a1.6 1.6 0 0 1 .4 0 1.2 1.2 0 0 1 1.1.7q.3.5.3 1.5a8.3 8.3 0 0 1 0 .3q0 4.2-9.3 9.7a72.5 72.5 0 0 1-1.6 1q-7.8 5.7-7.8 6.4a2 2 0 0 0 0 .2l.1.3a.2.2 0 0 0 .2.1 10 10 0 0 0 3.6-1q9.3-3.8 35.8-23.8 30.3-23 32.7-30.7a4.2 4.2 0 0 0 .2-1.2 3.7 3.7 0 0 0-2.3-3.5q-1.8-.8-5-1a29.2 29.2 0 0 0-1.4 0 141.6 141.6 0 0 0-44.8 7.5 176 176 0 0 0-18.1 7.1q-32 14.7-56.6 36.8-24.7 22-44.7 46.7a338.3 338.3 0 0 0-14.7 19.5q-6.9 10-12 19.2a179 179 0 0 0-3.9 7.1 172.2 172.2 0 0 0-4.6 10q-4.4 10.3-5.6 17.7a32.5 32.5 0 0 0-.4 5 10.7 10.7 0 0 0 .3 2.8q1.2 4.4 6.4 4.4a23.7 23.7 0 0 0 3.1-.3q6.6-.9 20.2-5a178.5 178.5 0 0 0 11-3.6q15.7-5.8 39.4-17 33-15.4 63.7-37a26.7 26.7 0 0 1 .8-.7q1.6-1.3 2.3-1.3a.7.7 0 0 1 .6.4q.2.4.2 1a2.6 2.6 0 0 1-.2.7q-.7 1.9-4 7.5a313 313 0 0 1-1.5 2.7 112.4 112.4 0 0 1-4 6.5q-5 7.3-12.6 16.4a353 353 0 0 1-.5.6 247.3 247.3 0 0 1-20.6 22 280.7 280.7 0 0 1-5.3 5 126.6 126.6 0 0 1-21 15.2 158.2 158.2 0 0 1-14 7.2 117.8 117.8 0 0 1-16.1 6q-8.9 2.6-17 3.2a66.1 66.1 0 0 1-4.6.1 79.3 79.3 0 0 1-10-.6q-5.4-.7-9.7-2.1a34.4 34.4 0 0 1-7.4-3.4 43 43 0 0 1-8.3-6.6 34.5 34.5 0 0 1-6-8.6 111.5 111.5 0 0 1-5.7-12.7q-2.5-6.7-3.6-12.7a54.7 54.7 0 0 1-.8-7.1h0z" stroke="null"/>
    </g>
    <g fill="#70004a" stroke-width="0" fill-rule="evenodd" stroke-linecap="round" id="c" stroke="#70004a" transform="matrix(1.1 0 0 1.1 -6.6 -33)">
      <path id="c-stroke-path" d="m243 368.8-.4-6.2q.3-28.7 19.4-59a174.7 174.7 0 0 1 1.7-2.7q20.8-31.8 51.8-55.8 31-24 68.7-39.3 37.7-15.3 71-15.3 19 0 35.2 7.9a35.2 35.2 0 0 1 8.2 5.4 23.7 23.7 0 0 1 8 18.4q0 15.4-16.8 33.2a117 117 0 0 1-1.3 1.3 164.3 164.3 0 0 1-33.6 26 192 192 0 0 1-10 5.6 151.8 151.8 0 0 1-15.9 7.2q-15.6 5.9-28.4 5.9-8.7 0-18-4.9a22.3 22.3 0 0 1-4.6-3 13.5 13.5 0 0 1-4.8-10.5 6.4 6.4 0 0 1 1.6-4q1.7-2.2 5.2-4a30.6 30.6 0 0 1 1-.4q27.4-11 41.2-21.3 2.5-2.8 4-3.1a1.6 1.6 0 0 1 .4 0 1.2 1.2 0 0 1 1.1.7q.3.5.3 1.5a8.3 8.3 0 0 1 0 .3q0 4.2-9.3 9.7a72.5 72.5 0 0 1-1.6 1q-7.8 5.7-7.8 6.4a2 2 0 0 0 0 .2l.1.3a.2.2 0 0 0 .2.1 10 10 0 0 0 3.6-1q9.3-3.8 35.8-23.8 30.3-23 32.7-30.7a4.2 4.2 0 0 0 .2-1.2 3.7 3.7 0 0 0-2.3-3.5q-1.8-.8-5-1a29.2 29.2 0 0 0-1.4 0 141.6 141.6 0 0 0-44.8 7.5 176 176 0 0 0-18.1 7.1q-32 14.7-56.6 36.8-24.7 22-44.7 46.7a338.3 338.3 0 0 0-14.7 19.5q-6.9 10-12 19.2a179 179 0 0 0-3.9 7.1 172.2 172.2 0 0 0-4.6 10q-4.4 10.3-5.6 17.7a32.5 32.5 0 0 0-.4 5 10.7 10.7 0 0 0 .3 2.8q1.2 4.4 6.4 4.4a23.7 23.7 0 0 0 3.1-.3q6.6-.9 20.2-5a178.5 178.5 0 0 0 11-3.6q15.7-5.8 39.4-17 33-15.4 63.7-37a26.7 26.7 0 0 1 .8-.7q1.6-1.3 2.3-1.3a.7.7 0 0 1 .6.4q.2.4.2 1a2.6 2.6 0 0 1-.2.7q-.7 1.9-4 7.5a313 313 0 0 1-1.5 2.7 112.4 112.4 0 0 1-4 6.5q-5 7.3-12.6 16.4a353 353 0 0 1-.5.6 247.3 247.3 0 0 1-20.6 22 280.7 280.7 0 0 1-5.3 5 126.6 126.6 0 0 1-21 15.2 158.2 158.2 0 0 1-14 7.2 117.8 117.8 0 0 1-16.1 6q-8.9 2.6-17 3.2a66.1 66.1 0 0 1-4.6.1 79.3 79.3 0 0 1-10-.6q-5.4-.7-9.7-2.1a34.4 34.4 0 0 1-7.4-3.4 43 43 0 0 1-8.3-6.6 34.5 34.5 0 0 1-6-8.6 111.5 111.5 0 0 1-5.7-12.7q-2.5-6.7-3.6-12.7a54.7 54.7 0 0 1-.8-7.1h0z" stroke="null"/>
    </g>
  </g>
</svg>