<svg width="600" height="600" xmlns="http://www.w3.org/2000/svg">
  <g id="Layer_2">
    <circle id="circle" cx="300" cy="300" r="240" stroke="#e1e4e9" stroke-width="110" fill="none"/>
    <circle id="circle" cx="300" cy="300" r="240" stroke="#005770" stroke-width="100" fill="none"/>
  </g>
  <g id="Layer_1">
    <g fill="none" stroke-width="6" font-size="12" fill-rule="evenodd" stroke-linecap="round" id="n-stroke" stroke="#e1e4e9">
      <path id="n-stroke-path" d="m300.4 308.9 32.8-36.8q7.1-5.9 16.3-5.9a34.4 34.4 0 0 1 2.8.1q4.7.4 5.9 2.2a2.5 2.5 0 0 1 .4 1.4q0 1.4-2 4.3a29.8 29.8 0 0 1-.2.1q-2 4.5-18.5 33.6-35.4 61.8-41.8 89.9a49.4 49.4 0 0 0-1.4 10.8q0 2 1 2a1.6 1.6 0 0 0 .8-.3q1.1-.7 3-3a46.7 46.7 0 0 0 1.1-1.7q7.8-13.4 18.8-29.9a816.6 816.6 0 0 1 7.1-10.3Q342.1 343 356 326a477.5 477.5 0 0 1 .5-.6q14-17.2 31.8-32.3a134.7 134.7 0 0 1 10.8-8.3q5.7-4 11.1-6.6a54.8 54.8 0 0 1 10.4-3.9 815 815 0 0 1 9.8-1.5q16-2.4 21.6-2.4.7.2.7 1.1 0 .9-2.7 2.4a160 160 0 0 0-17.8 11.7q-22.4 16.7-51.4 47.3a891.4 891.4 0 0 0-70.5 83.8 821.4 821.4 0 0 0-4.2 5.7q-8 13.5-12.7 17.8a14.5 14.5 0 0 1-1 1 18.5 18.5 0 0 1-9.3 3.5 23.8 23.8 0 0 1-2.6.1q-12.8 0-12.8-27.1a65 65 0 0 1 2.6-18 78.1 78.1 0 0 1 2-6.2 561 561 0 0 1 8.5-21.4q9.5-22.5 18.3-36.5a113.7 113.7 0 0 1 5.6-8.2 535.4 535.4 0 0 0 2-3q6.2-9.3 6.4-10.5a.5.5 0 0 0 0 0 .2.2 0 0 0 0-.2q-.2-.3-2.8 2.8a90.6 90.6 0 0 0-.2.3 3073.7 3073.7 0 0 1-26.8 33.3q-33.5 40.8-52.6 60.4a243 243 0 0 1-7.5 7.4 544.1 544.1 0 0 1-22.4 22 680.4 680.4 0 0 1-17.3 15.5q-18.4 16-30.8 23.7a88.3 88.3 0 0 1-4.7 2.7 16.3 16.3 0 0 1-3.6 2.3 12.6 12.6 0 0 1-5.3 1.2 14.3 14.3 0 0 1-3.6-.5q-3.3-.9-7.2-3.1a48.7 48.7 0 0 1-.5-.3q-6.7-4-6.7-9.2 0-2.4 2.3-4.4a11.5 11.5 0 0 1 .7-.5l40.4-34a65.7 65.7 0 0 1 1.3-1.1q2.6-2.2 3.3-2.2a1.2 1.2 0 0 1 .3 0q.6.2.6.9t-.6 1.9a12.5 12.5 0 0 1-.2.4 10.3 10.3 0 0 1-.7 1.3l-1 1.2a21.4 21.4 0 0 1-.6.7q-1.6 1.8-3.4 3.3l-4.2 4.4q-7.6 7.6-7.6 8.5 0 .9.5.9t2.5-1.5q23.6-16.3 68.3-61.3 44.7-45 77.5-81.8h0z" stroke="null"/>
    </g>
    <g fill="#70004a" stroke-width="0" font-size="12" fill-rule="evenodd" stroke-linecap="round" id="n-path" stroke="#70004a">
      <path id="n-fill-path" d="m300.4 308.9 32.8-36.8q7.1-5.9 16.3-5.9a34.4 34.4 0 0 1 2.8.1q4.7.4 5.9 2.2a2.5 2.5 0 0 1 .4 1.4q0 1.4-2 4.3a29.8 29.8 0 0 1-.2.1q-2 4.5-18.5 33.6-35.4 61.8-41.8 89.9a49.4 49.4 0 0 0-1.4 10.8q0 2 1 2a1.6 1.6 0 0 0 .8-.3q1.1-.7 3-3a46.7 46.7 0 0 0 1.1-1.7q7.8-13.4 18.8-29.9a816.6 816.6 0 0 1 7.1-10.3Q342.1 343 356 326a477.5 477.5 0 0 1 .5-.6q14-17.2 31.8-32.3a134.7 134.7 0 0 1 10.8-8.3q5.7-4 11.1-6.6a54.8 54.8 0 0 1 10.4-3.9 815 815 0 0 1 9.8-1.5q16-2.4 21.6-2.4.7.2.7 1.1 0 .9-2.7 2.4a160 160 0 0 0-17.8 11.7q-22.4 16.7-51.4 47.3a891.4 891.4 0 0 0-70.5 83.8 821.4 821.4 0 0 0-4.2 5.7q-8 13.5-12.7 17.8a14.5 14.5 0 0 1-1 1 18.5 18.5 0 0 1-9.3 3.5 23.8 23.8 0 0 1-2.6.1q-12.8 0-12.8-27.1a65 65 0 0 1 2.6-18 78.1 78.1 0 0 1 2-6.2 561 561 0 0 1 8.5-21.4q9.5-22.5 18.3-36.5a113.7 113.7 0 0 1 5.6-8.2 535.4 535.4 0 0 0 2-3q6.2-9.3 6.4-10.5a.5.5 0 0 0 0 0 .2.2 0 0 0 0-.2q-.2-.3-2.8 2.8a90.6 90.6 0 0 0-.2.3 3073.7 3073.7 0 0 1-26.8 33.3q-33.5 40.8-52.6 60.4a243 243 0 0 1-7.5 7.4 544.1 544.1 0 0 1-22.4 22 680.4 680.4 0 0 1-17.3 15.5q-18.4 16-30.8 23.7a88.3 88.3 0 0 1-4.7 2.7 16.3 16.3 0 0 1-3.6 2.3 12.6 12.6 0 0 1-5.3 1.2 14.3 14.3 0 0 1-3.6-.5q-3.3-.9-7.2-3.1a48.7 48.7 0 0 1-.5-.3q-6.7-4-6.7-9.2 0-2.4 2.3-4.4a11.5 11.5 0 0 1 .7-.5l40.4-34a65.7 65.7 0 0 1 1.3-1.1q2.6-2.2 3.3-2.2a1.2 1.2 0 0 1 .3 0q.6.2.6.9t-.6 1.9a12.5 12.5 0 0 1-.2.4 10.3 10.3 0 0 1-.7 1.3l-1 1.2a21.4 21.4 0 0 1-.6.7q-1.6 1.8-3.4 3.3l-4.2 4.4q-7.6 7.6-7.6 8.5 0 .9.5.9t2.5-1.5q23.6-16.3 68.3-61.3 44.7-45 77.5-81.8h0z" stroke="null"/>
    </g>
  </g>
  <g id="Layer_2">
    <g fill="none" stroke-width="6" font-size="12" fill-rule="evenodd" stroke-linecap="round" id="c-stroke" stroke="#e1e4e9">
      <path id="c-stroke-path" d="m337.9 401.4-.3-4.7q.3-22 14.9-45.2a133.7 133.7 0 0 1 1.3-2q15.9-24.3 39.6-42.7 23.7-18.4 52.5-30.1 29-11.7 54.3-11.7 14.6 0 27 6a27 27 0 0 1 6.3 4.2 18.2 18.2 0 0 1 6.2 14q0 11.8-13 25.4a89.6 89.6 0 0 1-1 1 125.7 125.7 0 0 1-25.6 20 147 147 0 0 1-7.7 4.3 116.2 116.2 0 0 1-12.1 5.4q-12 4.5-21.8 4.5-6.6 0-13.8-3.7a17 17 0 0 1-3.5-2.3 10.3 10.3 0 0 1-3.6-8 4.9 4.9 0 0 1 1.2-3.2q1.3-1.5 4-2.9a23.4 23.4 0 0 1 .7-.3q21-8.4 31.6-16.3 1.9-2.2 3-2.4a1.2 1.2 0 0 1 .3 0 1 1 0 0 1 .9.5q.2.4.2 1.1a6.3 6.3 0 0 1 0 .3q0 3.2-7.1 7.4a55.5 55.5 0 0 1-1.3.7q-6 4.5-6 5a1.5 1.5 0 0 0 0 .1l.2.3a.2.2 0 0 0 .1 0 7.7 7.7 0 0 0 2.7-.7q7.2-3 27.4-18.2 23.3-17.6 25-23.5a3.2 3.2 0 0 0 .2-1 2.8 2.8 0 0 0-1.8-2.6q-1.3-.7-3.7-.8a22.3 22.3 0 0 0-1.2 0 108.4 108.4 0 0 0-34.2 5.7 134.7 134.7 0 0 0-13.9 5.5q-24.4 11.2-43.3 28.1-18.9 17-34.1 35.8a258.9 258.9 0 0 0-11.3 14.9q-5.3 7.6-9.3 14.7a137 137 0 0 0-2.9 5.4 131.7 131.7 0 0 0-3.5 7.7q-3.4 7.8-4.3 13.5a24.9 24.9 0 0 0-.3 3.9 8.2 8.2 0 0 0 .2 2.1q.9 3.3 5 3.3a18.1 18.1 0 0 0 2.3-.2q5-.6 15.4-3.7a136.6 136.6 0 0 0 8.5-2.9q12-4.4 30.1-13 25.3-11.8 48.8-28.3a20.4 20.4 0 0 1 .6-.5q1.2-1 1.7-1a.5.5 0 0 1 .5.3l.1.7a2 2 0 0 1-.1.6q-.6 1.4-3 5.7a239.4 239.4 0 0 1-1.2 2.1 86 86 0 0 1-3.1 5q-3.8 5.5-9.6 12.5a270.2 270.2 0 0 1-.4.5 189.3 189.3 0 0 1-15.8 16.8 214.8 214.8 0 0 1-4 3.8 96.9 96.9 0 0 1-16.1 11.7 121 121 0 0 1-10.7 5.5 90.1 90.1 0 0 1-12.3 4.6q-6.8 2-13 2.4a50.6 50.6 0 0 1-3.6.1 60.7 60.7 0 0 1-7.7-.4q-4-.6-7.4-1.7a26.3 26.3 0 0 1-5.6-2.6 32.9 32.9 0 0 1-6.3-5 26.4 26.4 0 0 1-4.7-6.6 85.3 85.3 0 0 1-4.3-9.7q-1.9-5.1-2.7-9.8a41.9 41.9 0 0 1-.6-5.4h0z" stroke="null"/>
    </g>
    <g fill="#70004a" stroke-width="0" font-size="12" fill-rule="evenodd" stroke-linecap="round" id="c" stroke="#70004a">
      <path id="c-fill-path" d="m337.9 401.4-.3-4.7q.3-22 14.9-45.2a133.7 133.7 0 0 1 1.3-2q15.9-24.3 39.6-42.7 23.7-18.4 52.5-30.1 29-11.7 54.3-11.7 14.6 0 27 6a27 27 0 0 1 6.3 4.2 18.2 18.2 0 0 1 6.2 14q0 11.8-13 25.4a89.6 89.6 0 0 1-1 1 125.7 125.7 0 0 1-25.6 20 147 147 0 0 1-7.7 4.3 116.2 116.2 0 0 1-12.1 5.4q-12 4.5-21.8 4.5-6.6 0-13.8-3.7a17 17 0 0 1-3.5-2.3 10.3 10.3 0 0 1-3.6-8 4.9 4.9 0 0 1 1.2-3.2q1.3-1.5 4-2.9a23.4 23.4 0 0 1 .7-.3q21-8.4 31.6-16.3 1.9-2.2 3-2.4a1.2 1.2 0 0 1 .3 0 1 1 0 0 1 .9.5q.2.4.2 1.1a6.3 6.3 0 0 1 0 .3q0 3.2-7.1 7.4a55.5 55.5 0 0 1-1.3.7q-6 4.5-6 5a1.5 1.5 0 0 0 0 .1l.2.3a.2.2 0 0 0 .1 0 7.7 7.7 0 0 0 2.7-.7q7.2-3 27.4-18.2 23.3-17.6 25-23.5a3.2 3.2 0 0 0 .2-1 2.8 2.8 0 0 0-1.8-2.6q-1.3-.7-3.7-.8a22.3 22.3 0 0 0-1.2 0 108.4 108.4 0 0 0-34.2 5.7 134.7 134.7 0 0 0-13.9 5.5q-24.4 11.2-43.3 28.1-18.9 17-34.1 35.8a258.9 258.9 0 0 0-11.3 14.9q-5.3 7.6-9.3 14.7a137 137 0 0 0-2.9 5.4 131.7 131.7 0 0 0-3.5 7.7q-3.4 7.8-4.3 13.5a24.9 24.9 0 0 0-.3 3.9 8.2 8.2 0 0 0 .2 2.1q.9 3.3 5 3.3a18.1 18.1 0 0 0 2.3-.2q5-.6 15.4-3.7a136.6 136.6 0 0 0 8.5-2.9q12-4.4 30.1-13 25.3-11.8 48.8-28.3a20.4 20.4 0 0 1 .6-.5q1.2-1 1.7-1a.5.5 0 0 1 .5.3l.1.7a2 2 0 0 1-.1.6q-.6 1.4-3 5.7a239.4 239.4 0 0 1-1.2 2.1 86 86 0 0 1-3.1 5q-3.8 5.5-9.6 12.5a270.2 270.2 0 0 1-.4.5 189.3 189.3 0 0 1-15.8 16.8 214.8 214.8 0 0 1-4 3.8 96.9 96.9 0 0 1-16.1 11.7 121 121 0 0 1-10.7 5.5 90.1 90.1 0 0 1-12.3 4.6q-6.8 2-13 2.4a50.6 50.6 0 0 1-3.6.1 60.7 60.7 0 0 1-7.7-.4q-4-.6-7.4-1.7a26.3 26.3 0 0 1-5.6-2.6 32.9 32.9 0 0 1-6.3-5 26.4 26.4 0 0 1-4.7-6.6 85.3 85.3 0 0 1-4.3-9.7q-1.9-5.1-2.7-9.8a41.9 41.9 0 0 1-.6-5.4h0z" stroke="null"/>
    </g>
  </g>
  <g id="Layer_3">
    <g id="trumpet-stroke" fill="none" transform="matrix(.14 0 0 -.14 -100 599)" stroke-width="50" stroke="#e1e4e9">
      <path id="trumpet-bell-stroke" d="M2985 3878c21-213-189-559-589-976-71-74-87-95-77-105 10-9 38 14 134 113 349 359 559 696 572 918 3 37 5 68 5 70 1 15 147-105 240-198 99-98 210-232 210-254 0-3-11-4-25 0-14 3-55 1-92-6-196-34-442-182-743-448-182-160-257-239-242-254 9-9 33 9 104 78 185 178 355 317 511 418 188 123 379 190 473 169 50-12 54-9 54 28 0 45-77 147-220 290-144 144-243 219-291 219h-30l6-62z"/>
      <path id="trumpet-body-stroke" d="M2965 3154c-44-14-78-44-300-265l-251-248-82 82c-80 80-84 82-130 82s-47 1-44 30c6 70-23 98-77 75-28-11-61-56-61-83 0-30 31-49 69-43 47 7 60-6 54-54-5-38-3-42 67-115 41-41 80-75 89-75 12 0 10-5-7-22l-23-23-80 84c-78 81-81 83-119 78-48-6-62 8-54 52 7 33-16 71-42 71-28 0-63-24-80-56-15-27-16-37-6-60 12-25 16-26 56-21 52 7 74-9 57-42-17-31 0-59 83-140 70-67 76-76 61-90-14-14-23-8-99 68-80 80-86 84-120 78-44-7-59 9-51 56 6 30 3 38-18 52-24 15-28 15-60 0-44-21-65-65-48-102 10-23 16-25 51-20 48 6 65-9 55-53-6-29 0-37 79-118l85-88-154-154c-150-150-155-154-155-122 0 58 29 105 127 203 58 59 93 101 88 108-4 7-11 11-16 9-22-8-200-194-215-226-21-45-30-118-16-134 7-9 5-20-9-37-11-13-23-21-26-17-4 4-9 36-11 72-7 102 13 141 136 266 73 75 103 112 98 123-9 24-30 9-128-93-115-119-142-171-142-278-1-64 3-86 16-101 17-18 13-23-105-141-92-92-133-125-167-137-51-18-80-41-80-64 0-18 109-131 126-131 18 0 43 34 59 80 12 34 44 74 127 157l112 113 26-25c46-44 118-69 200-69 112 0 150 21 297 166l123 122 43-42c59-58 109-55 142 8 21 41 20 45-30 99-40 43-43 50-30 61 14 11 22 7 58-28 59-58 110-55 142 8 23 44 19 58-25 97-22 20-40 42-40 49 0 29 24 23 66-16 40-37 50-41 77-36 40 8 65 33 73 73 5 27 1 37-37 78l-42 46 250 252c275 276 279 282 271 388-10 139-145 227-283 183zm140-43c87-39 128-123 105-212-10-38-46-78-271-304-142-144-259-265-259-270s21-31 47-57c39-39 46-52 37-65-30-48-37-45-197 114l-153 152 29 29 28 29 85-86 84-86 251 250c138 138 257 262 265 277s14 47 14 72c0 84-85 149-167 127-32-9-160-133-793-766-415-415-760-755-767-755-6 0-15 5-19 11-10 17 1490 1516 1541 1540 50 23 89 24 140 0zm4-96c34-33 35-95 3-127-17-17-24-20-34-10-7 7-26 12-43 12-25 0-49-18-145-115-63-63-118-115-122-115-5 0-8 5-8 12 0 16-41 58-57 58-7 0-13 3-13 7s53 61 117 125l117 118 43-42c35-34 45-40 55-29 11 10 5 20-29 52-24 22-43 42-43 45 0 2 15 13 33 25 41 25 91 19 126-16zm-989-147c0-16-31-48-47-48-18 0-16 20 4 42 18 20 43 24 43 6zm950-25c0-12-414-423-425-423-44 0-18 33 175 225 144 145 212 205 228 205 12 0 22-3 22-7zm-839-86c-1-12-15-9-19 4-3 6 1 10 8 8 6-3 11-8 11-12zm-251-29c0-16-31-48-47-48-18 0-16 20 4 42 18 20 43 24 43 6zm220-8c12-8 11-10-7-10-13 0-23 5-23 10 0 13 11 13 30 0zm130-54 57-54-29-30-30-29-55 58-56 59 24 25c13 13 26 25 28 25s30-24 61-54zm378 18c43-30 17-104-36-104-56 0-81 61-42 100 24 24 48 25 78 4zm-617-67c-1-12-15-9-19 4-3 6 1 10 8 8 6-3 11-8 11-12zm499-39c0-4 14-15 31-23l30-16-28-34c-15-18-31-33-34-32-4 1-26 19-49 40l-42 39 33 34c31 32 35 33 46 17 7-9 13-20 13-25zm-750 10c0-16-31-48-47-48-18 0-16 20 4 42 18 20 43 24 43 6zm220-8c12-8 11-10-7-10-13 0-23 5-23 10 0 13 11 13 30 0zm130-54 57-54-29-30-30-29-55 58-56 59 24 25c13 13 26 25 28 25s30-24 61-54zm-240-56c0-5-2-10-4-10-3 0-8 5-11 10-3 6-1 10 4 10 6 0 11-4 11-10zm-36-41c-6-11-24-2-24 11 0 5 7 7 15 4 8-4 12-10 9-15zm136-43 57-55-31-30-32-31-52 53c-29 29-52 55-52 59 0 7 43 58 49 58 2 0 30-24 61-54zm402-12c35-36 64-72 66-80 8-33-38-10-97 50-55 56-62 67-51 80 7 9 14 16 15 16 2 0 32-30 67-66zm33-144c125-125 148-153 139-167-30-48-36-45-197 114l-153 153 25 25c14 14 28 25 31 25s73-68 155-150zm-173 4c67-69 77-88 55-97-7-3-43 24-83 64-64 61-69 70-55 84 8 8 16 15 17 15s31-30 66-66zm264-3c-9-14-33-14-41-1-4 6-1 18 6 26 11 13 14 13 27 0 8-8 11-19 8-25zm-234-138c82-81 148-153 148-159s-9-19-19-28c-26-24-53-14-94 35-19 21-38 39-42 39-5 0-66-56-135-124-152-150-187-170-290-171-75 0-128 17-185 60-17 14-18 17-4 31 15 14 20 13 54-10 73-50 164-57 238-20 37 19 277 252 277 270 0 6-36 47-80 90l-80 78 27 28c15 15 29 28 32 28s72-66 153-147zm-188 21c38-43 38-45 20-59-25-19-32-19-39 5-3 10-19 30-35 43-26 23-27 26-12 41 9 9 19 16 22 15 3 0 23-21 44-45zm282-23c-9-14-33-14-41-1-4 6-1 18 6 26 11 13 14 13 27 0 8-8 11-19 8-25zm-352-22c30-35 33-65 9-91-23-25-60-22-100 8l-35 26 43 44c24 24 46 44 50 44s19-14 33-31zm153-45c4-11-19-40-73-95-43-43-82-79-87-79-4 0-10 7-14 16-4 11 19 40 73 95 43 43 82 79 87 79 4 0 10-7 14-16zm-271-63c14-17 34-33 44-36 15-5 18-12 13-36-4-20 0-35 11-48 16-18 16-20-9-39-62-49-150-53-225-10l-39 23 87 88c47 48 88 87 90 87s14-13 28-29zm-562-430c16-17 16-22 1-57l-16-38-44 44c-45 44-45 44-23 57 33 18 62 16 82-6z"/>
    </g>
    <g id="trumpet" fill="#70004a" transform="matrix(.14 0 0 -.14 -100 599)" stroke-width="20" stroke="#70004a">
      <path id="trumpet-bell-fill" d="M2985 3878c21-213-189-559-589-976-71-74-87-95-77-105 10-9 38 14 134 113 349 359 559 696 572 918 3 37 5 68 5 70 1 15 147-105 240-198 99-98 210-232 210-254 0-3-11-4-25 0-14 3-55 1-92-6-196-34-442-182-743-448-182-160-257-239-242-254 9-9 33 9 104 78 185 178 355 317 511 418 188 123 379 190 473 169 50-12 54-9 54 28 0 45-77 147-220 290-144 144-243 219-291 219h-30l6-62z"/>
      <path id="trumpet-body-fill" d="M2965 3154c-44-14-78-44-300-265l-251-248-82 82c-80 80-84 82-130 82s-47 1-44 30c6 70-23 98-77 75-28-11-61-56-61-83 0-30 31-49 69-43 47 7 60-6 54-54-5-38-3-42 67-115 41-41 80-75 89-75 12 0 10-5-7-22l-23-23-80 84c-78 81-81 83-119 78-48-6-62 8-54 52 7 33-16 71-42 71-28 0-63-24-80-56-15-27-16-37-6-60 12-25 16-26 56-21 52 7 74-9 57-42-17-31 0-59 83-140 70-67 76-76 61-90-14-14-23-8-99 68-80 80-86 84-120 78-44-7-59 9-51 56 6 30 3 38-18 52-24 15-28 15-60 0-44-21-65-65-48-102 10-23 16-25 51-20 48 6 65-9 55-53-6-29 0-37 79-118l85-88-154-154c-150-150-155-154-155-122 0 58 29 105 127 203 58 59 93 101 88 108-4 7-11 11-16 9-22-8-200-194-215-226-21-45-30-118-16-134 7-9 5-20-9-37-11-13-23-21-26-17-4 4-9 36-11 72-7 102 13 141 136 266 73 75 103 112 98 123-9 24-30 9-128-93-115-119-142-171-142-278-1-64 3-86 16-101 17-18 13-23-105-141-92-92-133-125-167-137-51-18-80-41-80-64 0-18 109-131 126-131 18 0 43 34 59 80 12 34 44 74 127 157l112 113 26-25c46-44 118-69 200-69 112 0 150 21 297 166l123 122 43-42c59-58 109-55 142 8 21 41 20 45-30 99-40 43-43 50-30 61 14 11 22 7 58-28 59-58 110-55 142 8 23 44 19 58-25 97-22 20-40 42-40 49 0 29 24 23 66-16 40-37 50-41 77-36 40 8 65 33 73 73 5 27 1 37-37 78l-42 46 250 252c275 276 279 282 271 388-10 139-145 227-283 183zm140-43c87-39 128-123 105-212-10-38-46-78-271-304-142-144-259-265-259-270s21-31 47-57c39-39 46-52 37-65-30-48-37-45-197 114l-153 152 29 29 28 29 85-86 84-86 251 250c138 138 257 262 265 277s14 47 14 72c0 84-85 149-167 127-32-9-160-133-793-766-415-415-760-755-767-755-6 0-15 5-19 11-10 17 1490 1516 1541 1540 50 23 89 24 140 0zm4-96c34-33 35-95 3-127-17-17-24-20-34-10-7 7-26 12-43 12-25 0-49-18-145-115-63-63-118-115-122-115-5 0-8 5-8 12 0 16-41 58-57 58-7 0-13 3-13 7s53 61 117 125l117 118 43-42c35-34 45-40 55-29 11 10 5 20-29 52-24 22-43 42-43 45 0 2 15 13 33 25 41 25 91 19 126-16zm-989-147c0-16-31-48-47-48-18 0-16 20 4 42 18 20 43 24 43 6zm950-25c0-12-414-423-425-423-44 0-18 33 175 225 144 145 212 205 228 205 12 0 22-3 22-7zm-839-86c-1-12-15-9-19 4-3 6 1 10 8 8 6-3 11-8 11-12zm-251-29c0-16-31-48-47-48-18 0-16 20 4 42 18 20 43 24 43 6zm220-8c12-8 11-10-7-10-13 0-23 5-23 10 0 13 11 13 30 0zm130-54 57-54-29-30-30-29-55 58-56 59 24 25c13 13 26 25 28 25s30-24 61-54zm378 18c43-30 17-104-36-104-56 0-81 61-42 100 24 24 48 25 78 4zm-617-67c-1-12-15-9-19 4-3 6 1 10 8 8 6-3 11-8 11-12zm499-39c0-4 14-15 31-23l30-16-28-34c-15-18-31-33-34-32-4 1-26 19-49 40l-42 39 33 34c31 32 35 33 46 17 7-9 13-20 13-25zm-750 10c0-16-31-48-47-48-18 0-16 20 4 42 18 20 43 24 43 6zm220-8c12-8 11-10-7-10-13 0-23 5-23 10 0 13 11 13 30 0zm130-54 57-54-29-30-30-29-55 58-56 59 24 25c13 13 26 25 28 25s30-24 61-54zm-240-56c0-5-2-10-4-10-3 0-8 5-11 10-3 6-1 10 4 10 6 0 11-4 11-10zm-36-41c-6-11-24-2-24 11 0 5 7 7 15 4 8-4 12-10 9-15zm136-43 57-55-31-30-32-31-52 53c-29 29-52 55-52 59 0 7 43 58 49 58 2 0 30-24 61-54zm402-12c35-36 64-72 66-80 8-33-38-10-97 50-55 56-62 67-51 80 7 9 14 16 15 16 2 0 32-30 67-66zm33-144c125-125 148-153 139-167-30-48-36-45-197 114l-153 153 25 25c14 14 28 25 31 25s73-68 155-150zm-173 4c67-69 77-88 55-97-7-3-43 24-83 64-64 61-69 70-55 84 8 8 16 15 17 15s31-30 66-66zm264-3c-9-14-33-14-41-1-4 6-1 18 6 26 11 13 14 13 27 0 8-8 11-19 8-25zm-234-138c82-81 148-153 148-159s-9-19-19-28c-26-24-53-14-94 35-19 21-38 39-42 39-5 0-66-56-135-124-152-150-187-170-290-171-75 0-128 17-185 60-17 14-18 17-4 31 15 14 20 13 54-10 73-50 164-57 238-20 37 19 277 252 277 270 0 6-36 47-80 90l-80 78 27 28c15 15 29 28 32 28s72-66 153-147zm-188 21c38-43 38-45 20-59-25-19-32-19-39 5-3 10-19 30-35 43-26 23-27 26-12 41 9 9 19 16 22 15 3 0 23-21 44-45zm282-23c-9-14-33-14-41-1-4 6-1 18 6 26 11 13 14 13 27 0 8-8 11-19 8-25zm-352-22c30-35 33-65 9-91-23-25-60-22-100 8l-35 26 43 44c24 24 46 44 50 44s19-14 33-31zm153-45c4-11-19-40-73-95-43-43-82-79-87-79-4 0-10 7-14 16-4 11 19 40 73 95 43 43 82 79 87 79 4 0 10-7 14-16zm-271-63c14-17 34-33 44-36 15-5 18-12 13-36-4-20 0-35 11-48 16-18 16-20-9-39-62-49-150-53-225-10l-39 23 87 88c47 48 88 87 90 87s14-13 28-29zm-562-430c16-17 16-22 1-57l-16-38-44 44c-45 44-45 44-23 57 33 18 62 16 82-6z"/>
    </g>
  </g>
</svg>