<svg width="600" height="600" xmlns="http://www.w3.org/2000/svg">
  <g id="Layer_4">
    <title>Layer 4</title>
    <circle cx="300" cy="300" r="250" stroke="#005770" stroke-width="100" fill="none" />
  </g>

  <g id="Layer_1">
    <title>Layer 1</title>
    <g fill="#70004add" stroke-width="0mm" font-size="9pt" fill-rule="evenodd" stroke-linecap="round" id="svgGroup"
      stroke="#70004add">
      <path vector-effect="non-scaling-stroke" id="0"
        d="m300.37066,308.89106l32.81472,-36.76235q7.15509,-5.92145 16.28399,-5.92145a34.41104,34.41104 0 0 1 2.86944,0.10856q4.67548,0.39477 5.8573,2.20327a2.47961,2.47961 0 0 1 0.40217,1.38908q0,1.43101 -2.07745,4.24864a29.82685,29.82685 0 0 1 -0.1431,0.19245q-1.97382,4.44109 -18.50454,33.5549q-35.35354,61.8175 -41.75858,89.89012a49.41206,49.41206 0 0 0 -1.41868,10.77458q0,1.97382 0.98691,1.97382a1.62346,1.62346 0 0 0 0.80186,-0.2714q1.13001,-0.6711 2.92619,-3.01007a46.65365,46.65365 0 0 0 1.20649,-1.65308q7.74477,-13.41208 18.81541,-29.86139a816.56091,816.56091 0 0 1 7.09094,-10.35514q15.53888,-22.33868 29.40742,-39.4196a477.501,477.501 0 0 1 0.44657,-0.5502q14.06345,-17.2709 31.82781,-32.32126a134.65383,134.65383 0 0 1 10.78938,-8.29744q5.75121,-3.94763 11.12493,-6.55801a54.83265,54.83265 0 0 1 10.40695,-3.89582a815.08301,815.08301 0 0 1 9.763,-1.53958q15.98052,-2.40806 21.57135,-2.40806q0.74019,0.24672 0.74019,1.11027q0,0.86354 -2.714,2.34391a160.01492,160.01492 0 0 0 -17.73969,11.69733q-22.41023,16.77498 -51.46729,47.39382a891.4056,891.4056 0 0 0 -70.44062,83.71207a821.37208,821.37208 0 0 0 -4.19437,5.72653q-7.95695,13.48118 -12.74593,17.85565a14.49522,14.49522 0 0 1 -1.07079,0.89562a18.46013,18.46013 0 0 1 -9.26954,3.56521a23.84619,23.84619 0 0 1 -2.57337,0.1357q-12.82981,0 -12.82981,-27.14a65.00521,65.00521 0 0 1 2.63751,-18.04316a78.1163,78.1163 0 0 1 2.0503,-6.1361a560.99102,560.99102 0 0 1 8.49729,-21.43565q9.47433,-22.44724 18.23807,-36.49095a113.65241,113.65241 0 0 1 5.5859,-8.19627a535.44982,535.44982 0 0 0 1.96642,-2.91138q6.28661,-9.3781 6.41984,-10.60927a0.46138,0.46138 0 0 0 0.00247,-0.04935a0.18752,0.18752 0 0 0 -0.0148,-0.08389q-0.18752,-0.37502 -2.70659,2.74854a90.61549,90.61549 0 0 0 -0.23932,0.29607a3073.68046,3073.68046 0 0 1 -26.81925,33.27117q-33.43894,40.85062 -52.53562,60.48024a242.99421,242.99421 0 0 1 -7.4931,7.40675a544.11981,544.11981 0 0 1 -22.45464,22.0278a680.43164,680.43164 0 0 1 -17.26843,15.47473q-18.46506,16.00272 -30.78908,23.64634a88.28392,88.28392 0 0 1 -4.73963,2.75347a16.34074,16.34074 0 0 1 -3.62688,2.2995a12.59049,12.59049 0 0 1 -5.25529,1.15468a14.30031,14.30031 0 0 1 -3.62443,-0.51072q-3.23953,-0.85121 -7.18963,-3.12603a48.74342,48.74342 0 0 1 -0.5354,-0.31087q-6.66164,-3.94763 -6.66164,-9.12891q0,-2.41052 2.33404,-4.43122a11.48515,11.48515 0 0 1 0.62669,-0.50332l40.46326,-34.04836a65.66151,65.66151 0 0 1 1.28791,-1.09053q2.57584,-2.11692 3.27654,-2.11692a1.24351,1.24351 0 0 1 0.34295,0.04195q0.52059,0.1505 0.52059,0.8216q0,0.73031 -0.52799,1.8998a12.50414,12.50414 0 0 1 -0.21219,0.44411a10.33047,10.33047 0 0 1 -0.73524,1.23116q-0.4071,0.58967 -0.93263,1.2139a21.38385,21.38385 0 0 1 -0.67604,0.76239q-1.60373,1.7271 -3.33081,3.20746l-4.19437,4.44109q-7.64855,7.64855 -7.64855,8.51209q0,0.86354 0.49345,0.86354q0.49345,0 2.46727,-1.48036q23.68581,-16.28399 68.34343,-61.31171q44.65762,-45.02772 77.47233,-81.79007l0.00002,0.00001l0.00001,-0.00003z"
        stroke="null" />
    </g>
  </g>

  <g id="Layer_2">
    <title>Layer 2</title>
    <g fill="#70004add" stroke-width="0mm" font-size="9pt" fill-rule="evenodd" stroke-linecap="round" id="svgGroup"
      stroke="#70004add">
      <path vector-effect="non-scaling-stroke" id="1"
        d="m337.8732,401.41377l-0.24672,-4.68782q0.23685,-21.98832 14.86038,-45.22262a133.68666,133.68666 0 0 1 1.30025,-2.02563q15.9139,-24.30263 39.59972,-42.6838q23.68581,-18.38117 52.5529,-30.10072q28.86708,-11.71955 54.27998,-11.71955q14.55691,0 27.01663,6.04482a26.94261,26.94261 0 0 1 6.29894,4.13268a18.15172,18.15172 0 0 1 6.16077,14.12514q0,11.75902 -12.92111,25.34628a89.56937,89.56937 0 0 1 -1.01898,1.05353a125.72478,125.72478 0 0 1 -25.66457,19.94542a146.91864,146.91864 0 0 1 -7.64361,4.23384a116.1789,116.1789 0 0 1 -12.19326,5.48228q-11.95147,4.51017 -21.73173,4.51017q-6.66164,0 -13.81672,-3.70091a17.03898,17.03898 0 0 1 -3.45911,-2.31677a10.30579,10.30579 0 0 1 -3.69598,-8.04577a4.86546,4.86546 0 0 1 1.20649,-3.13837q1.29531,-1.57905 3.98465,-2.92619a23.43415,23.43415 0 0 1 0.73031,-0.35035q20.97181,-8.38872 31.58108,-16.28399q1.9294,-2.14405 3.01994,-2.42532a1.24598,1.24598 0 0 1 0.31087,-0.04195a0.91536,0.91536 0 0 1 0.87341,0.57241q0.20232,0.41697 0.23192,1.13988a6.32115,6.32115 0 0 1 0.00493,0.26153q0,3.18278 -7.12548,7.41415a55.50374,55.50374 0 0 1 -1.26324,0.72784q-5.92145,4.44109 -5.92145,4.93454a1.48283,1.48283 0 0 0 0.0074,0.1653q0.01974,0.1653 0.07895,0.24672a0.18752,0.18752 0 0 0 0.16037,0.08142a7.66335,7.66335 0 0 0 2.69919,-0.72537q7.15016,-2.98539 27.40152,-18.27262q23.22937,-17.53737 25.01813,-23.51063a3.21486,3.21486 0 0 0 0.14804,-0.91536a2.79789,2.79789 0 0 0 -1.76657,-2.64245q-1.3496,-0.65876 -3.72558,-0.78212a22.32388,22.32388 0 0 0 -1.16949,-0.0296a108.37738,108.37738 0 0 0 -34.2408,5.7364a134.67357,134.67357 0 0 0 -13.871,5.48968q-24.42599,11.22608 -43.30062,28.12689q-18.87463,16.90081 -34.17171,35.77544a258.85137,258.85137 0 0 0 -11.24829,14.88751q-5.28736,7.5844 -9.27201,14.67533a136.96814,136.96814 0 0 0 -2.91878,5.47241a131.74985,131.74985 0 0 0 -3.56274,7.62633q-3.34068,7.8484 -4.2437,13.51572a24.88738,24.88738 0 0 0 -0.33555,3.90075a8.21108,8.21108 0 0 0 0.24672,2.11445q0.88575,3.31355 4.93454,3.31355a18.12704,18.12704 0 0 0 2.36858,-0.18998q4.98636,-0.67357 15.39578,-3.75765a136.55857,136.55857 0 0 0 8.44054,-2.84476q11.99587,-4.43369 30.17227,-12.94578q25.28953,-11.8429 48.72862,-28.37363a20.41914,20.41914 0 0 1 0.60942,-0.50332q1.23364,-0.97704 1.7345,-0.97704a0.51319,0.51319 0 0 1 0.49099,0.29607q0.12583,0.24427 0.12583,0.69084a1.96395,1.96395 0 0 1 -0.14804,0.58721q-0.53294,1.44829 -2.97799,5.7364a239.44133,239.44133 0 0 1 -1.19169,2.0651a86.02884,86.02884 0 0 1 -3.13344,4.93948q-3.79467,5.59083 -9.55821,12.60282a270.17121,270.17121 0 0 1 -0.38489,0.46879a189.26196,189.26196 0 0 1 -15.78067,16.83173a214.79576,214.79576 0 0 1 -4.08087,3.77a96.87743,96.87743 0 0 1 -16.09895,11.63812a121.03695,121.03695 0 0 1 -10.67096,5.50942a90.10724,90.10724 0 0 1 -12.32156,4.63354q-6.79487,1.96642 -13.05928,2.40065a50.61115,50.61115 0 0 1 -3.48626,0.1209a60.65047,60.65047 0 0 1 -7.69542,-0.45892q-4.05126,-0.51812 -7.38948,-1.62593a26.30359,26.30359 0 0 1 -5.64018,-2.60297a32.8764,32.8764 0 0 1 -6.33595,-5.06284a26.39734,26.39734 0 0 1 -4.64341,-6.53334a85.3454,85.3454 0 0 1 -4.3572,-9.78027q-1.86279,-5.07024 -2.68192,-9.71612a41.87947,41.87947 0 0 1 -0.60942,-5.42306l0,-0.00003l0.00003,0.00007z"
        stroke="null" />
    </g>
  </g>
  <g id="Layer_3">
    <title>Layer 3</title>
    <g id="svg_1" fill="#70004add" transform="translate(-100.000000,599.000000) scale(0.14000,-0.1400000)">
      <path id="svg_2"
        stroke-width="5mm" stroke="#70004add"
        d="m2985,3878c21,-213 -189,-559 -589,-976c-71,-74 -87,-95 -77,-105c10,-9 38,14 134,113c349,359 559,696 572,918c3,37 5,68 5,70c1,15 147,-105 240,-198c99,-98 210,-232 210,-254c0,-3 -11,-4 -25,0c-14,3 -55,1 -92,-6c-196,-34 -442,-182 -743,-448c-182,-160 -257,-239 -242,-254c9,-9 33,9 104,78c185,178 355,317 511,418c188,123 379,190 473,169c50,-12 54,-9 54,28c0,45 -77,147 -220,290c-144,144 -243,219 -291,219l-30,0l6,-62z" />
      <path id="svg_3"
        stroke-width="5mm" stroke="#70004add"
        d="m2965,3154c-44,-14 -78,-44 -300,-265l-251,-248l-82,82c-80,80 -84,82 -130,82c-46,0 -47,1 -44,30c6,70 -23,98 -77,75c-28,-11 -61,-56 -61,-83c0,-30 31,-49 69,-43c47,7 60,-6 54,-54c-5,-38 -3,-42 67,-115c41,-41 80,-75 89,-75c12,0 10,-5 -7,-22l-23,-23l-80,84c-78,81 -81,83 -119,78c-48,-6 -62,8 -54,52c7,33 -16,71 -42,71c-28,0 -63,-24 -80,-56c-15,-27 -16,-37 -6,-60c12,-25 16,-26 56,-21c52,7 74,-9 57,-42c-17,-31 0,-59 83,-140c70,-67 76,-76 61,-90c-14,-14 -23,-8 -99,68c-80,80 -86,84 -120,78c-44,-7 -59,9 -51,56c6,30 3,38 -18,52c-24,15 -28,15 -60,0c-44,-21 -65,-65 -48,-102c10,-23 16,-25 51,-20c48,6 65,-9 55,-53c-6,-29 0,-37 79,-118l85,-88l-154,-154c-150,-150 -155,-154 -155,-122c0,58 29,105 127,203c58,59 93,101 88,108c-4,7 -11,11 -16,9c-22,-8 -200,-194 -215,-226c-21,-45 -30,-118 -16,-134c7,-9 5,-20 -9,-37c-11,-13 -23,-21 -26,-17c-4,4 -9,36 -11,72c-7,102 13,141 136,266c73,75 103,112 98,123c-9,24 -30,9 -128,-93c-115,-119 -142,-171 -142,-278c-1,-64 3,-86 16,-101c17,-18 13,-23 -105,-141c-92,-92 -133,-125 -167,-137c-51,-18 -80,-41 -80,-64c0,-18 109,-131 126,-131c18,0 43,34 59,80c12,34 44,74 127,157l112,113l26,-25c46,-44 118,-69 200,-69c112,0 150,21 297,166l123,122l43,-42c59,-58 109,-55 142,8c21,41 20,45 -30,99c-40,43 -43,50 -30,61c14,11 22,7 58,-28c59,-58 110,-55 142,8c23,44 19,58 -25,97c-22,20 -40,42 -40,49c0,29 24,23 66,-16c40,-37 50,-41 77,-36c40,8 65,33 73,73c5,27 1,37 -37,78l-42,46l250,252c275,276 279,282 271,388c-10,139 -145,227 -283,183zm140,-43c87,-39 128,-123 105,-212c-10,-38 -46,-78 -271,-304c-142,-144 -259,-265 -259,-270c0,-5 21,-31 47,-57c39,-39 46,-52 37,-65c-30,-48 -37,-45 -197,114l-153,152l29,29l28,29l85,-86l84,-86l251,250c138,138 257,262 265,277c8,15 14,47 14,72c0,84 -85,149 -167,127c-32,-9 -160,-133 -793,-766c-415,-415 -760,-755 -767,-755c-6,0 -15,5 -19,11c-10,17 1490,1516 1541,1540c50,23 89,24 140,0zm4,-96c34,-33 35,-95 3,-127c-17,-17 -24,-20 -34,-10c-7,7 -26,12 -43,12c-25,0 -49,-18 -145,-115c-63,-63 -118,-115 -122,-115c-5,0 -8,5 -8,12c0,16 -41,58 -57,58c-7,0 -13,3 -13,7c0,4 53,61 117,125l117,118l43,-42c35,-34 45,-40 55,-29c11,10 5,20 -29,52c-24,22 -43,42 -43,45c0,2 15,13 33,25c41,25 91,19 126,-16zm-989,-147c0,-16 -31,-48 -47,-48c-18,0 -16,20 4,42c18,20 43,24 43,6zm950,-25c0,-12 -414,-423 -425,-423c-44,0 -18,33 175,225c144,145 212,205 228,205c12,0 22,-3 22,-7zm-839,-86c-1,-12 -15,-9 -19,4c-3,6 1,10 8,8c6,-3 11,-8 11,-12zm-251,-29c0,-16 -31,-48 -47,-48c-18,0 -16,20 4,42c18,20 43,24 43,6zm220,-8c12,-8 11,-10 -7,-10c-13,0 -23,5 -23,10c0,13 11,13 30,0zm130,-54l57,-54l-29,-30l-30,-29l-55,58l-56,59l24,25c13,13 26,25 28,25c2,0 30,-24 61,-54zm378,18c43,-30 17,-104 -36,-104c-56,0 -81,61 -42,100c24,24 48,25 78,4zm-617,-67c-1,-12 -15,-9 -19,4c-3,6 1,10 8,8c6,-3 11,-8 11,-12zm499,-39c0,-4 14,-15 31,-23l30,-16l-28,-34c-15,-18 -31,-33 -34,-32c-4,1 -26,19 -49,40l-42,39l33,34c31,32 35,33 46,17c7,-9 13,-20 13,-25zm-750,10c0,-16 -31,-48 -47,-48c-18,0 -16,20 4,42c18,20 43,24 43,6zm220,-8c12,-8 11,-10 -7,-10c-13,0 -23,5 -23,10c0,13 11,13 30,0zm130,-54l57,-54l-29,-30l-30,-29l-55,58l-56,59l24,25c13,13 26,25 28,25c2,0 30,-24 61,-54zm-240,-56c0,-5 -2,-10 -4,-10c-3,0 -8,5 -11,10c-3,6 -1,10 4,10c6,0 11,-4 11,-10zm-36,-41c-6,-11 -24,-2 -24,11c0,5 7,7 15,4c8,-4 12,-10 9,-15zm136,-43l57,-55l-31,-30l-32,-31l-52,53c-29,29 -52,55 -52,59c0,7 43,58 49,58c2,0 30,-24 61,-54zm402,-12c35,-36 64,-72 66,-80c8,-33 -38,-10 -97,50c-55,56 -62,67 -51,80c7,9 14,16 15,16c2,0 32,-30 67,-66zm33,-144c125,-125 148,-153 139,-167c-30,-48 -36,-45 -197,114l-153,153l25,25c14,14 28,25 31,25c3,0 73,-68 155,-150zm-173,4c67,-69 77,-88 55,-97c-7,-3 -43,24 -83,64c-64,61 -69,70 -55,84c8,8 16,15 17,15c1,0 31,-30 66,-66zm264,-3c-9,-14 -33,-14 -41,-1c-4,6 -1,18 6,26c11,13 14,13 27,0c8,-8 11,-19 8,-25zm-234,-138c82,-81 148,-153 148,-159c0,-6 -9,-19 -19,-28c-26,-24 -53,-14 -94,35c-19,21 -38,39 -42,39c-5,0 -66,-56 -135,-124c-152,-150 -187,-170 -290,-171c-75,0 -128,17 -185,60c-17,14 -18,17 -4,31c15,14 20,13 54,-10c73,-50 164,-57 238,-20c37,19 277,252 277,270c0,6 -36,47 -80,90l-80,78l27,28c15,15 29,28 32,28c3,0 72,-66 153,-147zm-188,21c38,-43 38,-45 20,-59c-25,-19 -32,-19 -39,5c-3,10 -19,30 -35,43c-26,23 -27,26 -12,41c9,9 19,16 22,15c3,0 23,-21 44,-45zm282,-23c-9,-14 -33,-14 -41,-1c-4,6 -1,18 6,26c11,13 14,13 27,0c8,-8 11,-19 8,-25zm-352,-22c30,-35 33,-65 9,-91c-23,-25 -60,-22 -100,8l-35,26l43,44c24,24 46,44 50,44c4,0 19,-14 33,-31zm153,-45c4,-11 -19,-40 -73,-95c-43,-43 -82,-79 -87,-79c-4,0 -10,7 -14,16c-4,11 19,40 73,95c43,43 82,79 87,79c4,0 10,-7 14,-16zm-271,-63c14,-17 34,-33 44,-36c15,-5 18,-12 13,-36c-4,-20 0,-35 11,-48c16,-18 16,-20 -9,-39c-62,-49 -150,-53 -225,-10l-39,23l87,88c47,48 88,87 90,87c2,0 14,-13 28,-29zm-562,-430c16,-17 16,-22 1,-57l-16,-38l-44,44c-45,44 -45,44 -23,57c33,18 62,16 82,-6z" />
    </g>
  </g>
</svg>